<svg width="41" height="32" viewBox="0 0 41 32" fill="none" xmlns="http://www.w3.org/2000/svg">
<path fill-rule="evenodd" clip-rule="evenodd" d="M0.680176 2.20722C0.680176 2.20366 0.680185 2.20009 0.680205 2.19653C0.682921 1.69505 0.876818 1.1944 1.26189 0.811777C1.64971 0.426435 2.158 0.233765 2.66629 0.233765H38.4163C38.9357 0.233765 39.4342 0.435938 39.8051 0.796427C39.8103 0.801512 39.8155 0.806629 39.8207 0.811777C39.8259 0.816924 39.831 0.822097 39.8361 0.827296C40.1759 1.17248 40.376 1.62883 40.4 2.10936C40.4016 2.14188 40.4024 2.17451 40.4024 2.20722V25.8887C40.4024 27.4589 39.7746 28.9647 38.6572 30.075C37.5398 31.1853 36.0243 31.8091 34.4441 31.8091H6.63851C5.05826 31.8091 3.54274 31.1853 2.42533 30.075C1.30793 28.9647 0.680176 27.4589 0.680176 25.8887V2.20722ZM36.4302 6.97156V25.8887C36.4302 26.4121 36.2209 26.914 35.8485 27.2841C35.476 27.6542 34.9708 27.8621 34.4441 27.8621H6.63851C6.11176 27.8621 5.60659 27.6542 5.23412 27.2841C4.86165 26.914 4.6524 26.4121 4.6524 25.8887V6.97157L19.1369 21.3638C19.9125 22.1345 21.1701 22.1345 21.9457 21.3638L36.4302 6.97156ZM33.6214 4.18068L20.5413 17.1774L7.46118 4.18068H33.6214Z" fill="white"/>
</svg>
