<svg width="40" height="40" viewBox="0 0 40 40" fill="none" xmlns="http://www.w3.org/2000/svg">
<path d="M11.6742 0.264648H28.3576C34.7131 0.264648 39.877 5.42495 39.877 11.7761V28.4479C39.877 31.5009 38.6634 34.4289 36.503 36.5877C34.3427 38.7465 31.4127 39.9593 28.3576 39.9593H11.6742C5.31867 39.9593 0.154785 34.799 0.154785 28.4479V11.7761C0.154785 8.72307 1.36844 5.79509 3.52875 3.63627C5.68907 1.47746 8.61908 0.264648 11.6742 0.264648ZM11.277 4.23411C9.38071 4.23411 7.56208 4.98689 6.22119 6.32685C4.88031 7.6668 4.12701 9.48417 4.12701 11.3792V28.8448C4.12701 32.7944 7.32465 35.9898 11.277 35.9898H28.7548C30.6511 35.9898 32.4697 35.2371 33.8106 33.8971C35.1515 32.5572 35.9048 30.7398 35.9048 28.8448V11.3792C35.9048 7.42953 32.7071 4.23411 28.7548 4.23411H11.277ZM30.443 7.21121C31.1014 7.21121 31.7329 7.47259 32.1985 7.93786C32.6641 8.40312 32.9256 9.03415 32.9256 9.69213C32.9256 10.3501 32.6641 10.9811 32.1985 11.4464C31.7329 11.9117 31.1014 12.173 30.443 12.173C29.7845 12.173 29.1531 11.9117 28.6875 11.4464C28.2219 10.9811 27.9603 10.3501 27.9603 9.69213C27.9603 9.03415 28.2219 8.40312 28.6875 7.93786C29.1531 7.47259 29.7845 7.21121 30.443 7.21121ZM20.0159 10.1883C22.6496 10.1883 25.1755 11.2338 27.0379 13.0949C28.9002 14.9559 29.9465 17.4801 29.9465 20.112C29.9465 22.7439 28.9002 25.268 27.0379 27.1291C25.1755 28.9901 22.6496 30.0356 20.0159 30.0356C17.3821 30.0356 14.8563 28.9901 12.9939 27.1291C11.1316 25.268 10.0853 22.7439 10.0853 20.112C10.0853 17.4801 11.1316 14.9559 12.9939 13.0949C14.8563 11.2338 17.3821 10.1883 20.0159 10.1883ZM20.0159 14.1578C18.4356 14.1578 16.9201 14.7851 15.8027 15.9017C14.6853 17.0184 14.0576 18.5328 14.0576 20.112C14.0576 21.6911 14.6853 23.2056 15.8027 24.3222C16.9201 25.4389 18.4356 26.0662 20.0159 26.0662C21.5961 26.0662 23.1117 25.4389 24.2291 24.3222C25.3465 23.2056 25.9742 21.6911 25.9742 20.112C25.9742 18.5328 25.3465 17.0184 24.2291 15.9017C23.1117 14.7851 21.5961 14.1578 20.0159 14.1578Z" fill="white"/>
</svg>
