<svg width="36" height="49" viewBox="0 0 36 49" fill="none" xmlns="http://www.w3.org/2000/svg">
<path d="M19.7542 10.536C22.6637 10.536 25.0222 8.17752 25.0222 5.26802C25.0222 2.35851 22.6637 0 19.7542 0C16.8447 0 14.4862 2.35851 14.4862 5.26802C14.4862 8.17752 16.8447 10.536 19.7542 10.536Z" fill="#00AAAF"/>
<path d="M19.7543 48.6016C26.2992 48.6016 31.608 43.2957 31.608 36.7478C31.608 35.363 31.3719 34.0307 30.9317 32.7975C29.3078 28.1942 24.9144 24.897 19.7572 24.897V48.6016H19.7543Z" fill="#00AAAF"/>
<path d="M19.7545 40.701V16.9964C15.1658 16.9964 11.1893 19.6056 9.2185 23.4218V23.4889C9.2185 23.4889 9.20101 23.4772 9.19227 23.4743C8.98528 23.8795 8.80161 24.2964 8.64127 24.725C8.16315 26.0106 7.90369 27.3983 7.90369 28.8502C7.90369 30.302 8.13983 31.5673 8.58004 32.8004C10.2039 37.4038 14.5973 40.701 19.7545 40.701Z" fill="#D0E3EA"/>
<path d="M2.63547 21.3286C2.927 21.661 3.23894 21.9729 3.57129 22.2644C4.08439 22.7192 4.64413 23.1245 5.23886 23.4714C5.25052 23.4539 5.25927 23.4335 5.27093 23.4131V23.4889C6.08431 23.9612 6.97057 24.3256 7.90348 24.5676C8.14545 24.6288 8.39326 24.6813 8.64106 24.725C8.8014 24.2964 8.98799 23.8795 9.19206 23.4743C9.19206 23.4743 9.18914 23.4743 9.18623 23.4714C9.19789 23.4539 9.20664 23.4335 9.2183 23.4131V23.4218C11.1891 19.6057 15.1656 16.9964 19.7543 16.9964V24.897H35.5584V14.361H0C0 16.2793 0.510184 18.078 1.40519 19.629C1.75795 20.2354 2.16901 20.8068 2.63255 21.3286" fill="#004F5A"/>
</svg>
