<svg width="94" height="49" viewBox="0 0 94 49" fill="none" xmlns="http://www.w3.org/2000/svg">
<path d="M19.7542 10.536C22.6637 10.536 25.0222 8.17752 25.0222 5.26802C25.0222 2.35851 22.6637 0 19.7542 0C16.8447 0 14.4862 2.35851 14.4862 5.26802C14.4862 8.17752 16.8447 10.536 19.7542 10.536Z" fill="#00AAAF"/>
<path d="M19.7543 48.6016C26.2992 48.6016 31.608 43.2957 31.608 36.7478C31.608 35.363 31.3719 34.0307 30.9317 32.7975C29.3078 28.1942 24.9144 24.897 19.7572 24.897V48.6016H19.7543Z" fill="#00AAAF"/>
<path d="M19.7545 40.701V16.9964C15.1658 16.9964 11.1893 19.6056 9.2185 23.4218V23.4889C9.2185 23.4889 9.20101 23.4772 9.19227 23.4743C8.98528 23.8795 8.80161 24.2964 8.64127 24.725C8.16315 26.0106 7.90369 27.3983 7.90369 28.8502C7.90369 30.302 8.13983 31.5673 8.58004 32.8004C10.2039 37.4038 14.5973 40.701 19.7545 40.701Z" fill="#D0E3EA"/>
<path d="M2.63547 21.3286C2.927 21.661 3.23894 21.9729 3.57129 22.2644C4.08439 22.7192 4.64413 23.1245 5.23886 23.4714C5.25052 23.4539 5.25927 23.4335 5.27093 23.4131V23.4889C6.08431 23.9612 6.97057 24.3256 7.90348 24.5676C8.14545 24.6288 8.39326 24.6813 8.64106 24.725C8.8014 24.2964 8.98799 23.8795 9.19206 23.4743C9.19206 23.4743 9.18914 23.4743 9.18623 23.4714C9.19789 23.4539 9.20664 23.4335 9.2183 23.4131V23.4218C11.1891 19.6057 15.1656 16.9964 19.7543 16.9964V24.897H35.5584V14.361H0C0 16.2793 0.510184 18.078 1.40519 19.629C1.75795 20.2354 2.16901 20.8068 2.63255 21.3286" fill="#004F5A"/>
<path d="M50.4847 24.6492C47.8114 24.6492 45.6482 26.8153 45.6482 29.4857V48.3713H50.4847V24.6462V24.6492Z" fill="#004F5A"/>
<path d="M63.9743 17.3929C61.3272 17.3929 59.1815 19.5386 59.1815 22.1857V24.6521H54.4353V28.512H59.1815V41.2112C59.1815 43.7242 59.8258 45.6221 61.1114 46.9107C62.3971 48.1963 64.4203 48.8406 67.1812 48.8406C67.9566 48.8406 68.6534 48.794 69.2744 48.7007C69.8953 48.6074 70.3764 48.485 70.7175 48.3275V44.421C70.4055 44.5463 70.0353 44.6542 69.6009 44.7475C69.1665 44.8408 68.6709 44.8874 68.1112 44.8874C66.6535 44.8874 65.5981 44.593 64.948 44.0041C64.2979 43.4152 63.9714 42.4998 63.9714 41.2608V28.5149H70.7175V24.655H63.9714V17.3987L63.9743 17.3929Z" fill="#004F5A"/>
<path d="M86.3496 34.742L82.443 33.7654C81.1107 33.4243 80.1545 33.0045 79.5831 32.5089C79.0088 32.0133 78.7231 31.3923 78.7231 30.6489C78.7231 29.751 79.1021 29.0455 79.863 28.5324C80.621 28.0193 81.7142 27.7656 83.1427 27.7656C84.6616 27.7656 85.8627 28.0688 86.749 28.6723C87.6323 29.2787 88.1688 30.1387 88.3524 31.2553H92.8187C92.603 29.0222 91.6468 27.2846 89.9588 26.0456C88.2679 24.8066 86.0435 24.1856 83.2827 24.1856C80.5218 24.1856 78.2974 24.7978 76.6998 26.0223C75.1022 27.2467 74.3034 28.9289 74.3034 31.0687C74.3034 32.7742 74.8836 34.2085 76.0468 35.3718C77.21 36.535 78.9855 37.4125 81.3731 37.9985L85.1864 38.8818C86.5828 39.2229 87.5186 39.6486 87.9997 40.1617C88.4807 40.6748 88.7198 41.3016 88.7198 42.045C88.7198 43.0683 88.3 43.8583 87.4633 44.4181C86.6266 44.9749 85.4167 45.2548 83.8337 45.2548C82.0349 45.2548 80.6151 44.8903 79.5773 44.1615C78.5365 43.4327 77.9097 42.3861 77.694 41.0217H73.2277C73.4755 43.5026 74.5133 45.4268 76.3442 46.7911C78.175 48.1555 80.6384 48.8377 83.7404 48.8377C86.8423 48.8377 89.0346 48.2313 90.6934 47.0244C92.3523 45.8145 93.1831 44.1411 93.1831 42.0012C93.1831 40.2345 92.6088 38.7215 91.4631 37.465C90.3145 36.2085 88.609 35.3018 86.3467 34.742" fill="#004F5A"/>
<path d="M48.0652 15.7866C46.4326 15.7866 45.109 17.1101 45.109 18.7427C45.109 20.3753 46.4326 21.6989 48.0652 21.6989C49.6977 21.6989 51.0213 20.3753 51.0213 18.7427C51.0213 17.1101 49.6977 15.7866 48.0652 15.7866Z" fill="#004F5A"/>
</svg>
