<svg width="65" height="56" viewBox="0 0 65 56" fill="none" xmlns="http://www.w3.org/2000/svg">
<path d="M55.7143 0H9.28571C6.82381 0.00270208 4.46352 0.986901 2.72269 2.73665C0.981865 4.48641 0.00268829 6.85881 0 9.33333V46.6667C0.00268829 49.1412 0.981865 51.5136 2.72269 53.2633C4.46352 55.0131 6.82381 55.9973 9.28571 56H55.7143C58.1762 55.9973 60.5365 55.0131 62.2773 53.2633C64.0181 51.5136 64.9973 49.1412 65 46.6667V9.33333C64.9973 6.85881 64.0181 4.48641 62.2773 2.73665C60.5365 0.986901 58.1762 0.00270208 55.7143 0ZM44.1071 9.33333C45.4845 9.33333 46.831 9.74388 47.9763 10.513C49.1216 11.2822 50.0142 12.3755 50.5413 13.6545C51.0684 14.9336 51.2063 16.3411 50.9376 17.699C50.6689 19.0568 50.0056 20.3041 49.0316 21.2831C48.0577 22.262 46.8167 22.9287 45.4658 23.1988C44.1149 23.4689 42.7146 23.3303 41.442 22.8005C40.1695 22.2707 39.0818 21.3735 38.3165 20.2223C37.5513 19.0712 37.1429 17.7178 37.1429 16.3333C37.1448 14.4774 37.8791 12.6981 39.1848 11.3857C40.4904 10.0734 42.2607 9.33526 44.1071 9.33333ZM9.28571 51.3333C8.05435 51.3333 6.87342 50.8417 6.00272 49.9665C5.13201 49.0913 4.64286 47.9043 4.64286 46.6667V36.804L18.4031 24.5102C19.7308 23.3267 21.4574 22.6965 23.2312 22.748C25.005 22.7995 26.6925 23.5288 27.95 24.7873L37.3735 34.2387L20.3662 51.3333H9.28571ZM60.3571 46.6667C60.3571 47.9043 59.868 49.0913 58.9973 49.9665C58.1266 50.8417 56.9456 51.3333 55.7143 51.3333H26.9329L44.5497 33.6262C45.7969 32.5601 47.3798 31.9728 49.0171 31.9685C50.6544 31.9642 52.2402 32.5433 53.493 33.6029L60.3571 39.3517V46.6667Z" fill="white"/>
</svg>
