<svg width="41" height="40" viewBox="0 0 41 40" fill="none" xmlns="http://www.w3.org/2000/svg">
<path d="M34.3476 6.04032C32.5176 4.20232 30.3378 2.74502 27.9354 1.75341C25.5331 0.76181 22.9562 0.255757 20.355 0.264767C9.45636 0.264767 0.57375 9.0968 0.57375 19.9334C0.57375 23.4067 1.49195 26.7807 3.20859 29.7578L0.414062 39.9593L10.8935 37.2204C13.7879 38.7883 17.0415 39.6219 20.355 39.6219C31.2537 39.6219 40.1363 30.7899 40.1363 19.9533C40.1363 14.6937 38.0803 9.75176 34.3476 6.04032ZM20.355 36.2876C17.4008 36.2876 14.5065 35.4937 11.9714 34.0051L11.3726 33.6479L5.1448 35.2753L6.80156 29.2418L6.40234 28.6265C4.76104 26.0205 3.88954 23.0082 3.88726 19.9334C3.88726 10.9227 11.2728 3.57926 20.3351 3.57926C24.7265 3.57926 28.8584 5.28613 31.9523 8.3823C33.4843 9.89856 34.6983 11.7021 35.5241 13.6883C36.3499 15.6746 36.7709 17.804 36.7629 19.9533C36.8028 28.9639 29.4173 36.2876 20.355 36.2876ZM29.3773 24.0616C28.8783 23.8235 26.4431 22.6326 26.004 22.454C25.5449 22.2952 25.2255 22.2158 24.8861 22.6922C24.5468 23.1884 23.6086 24.2998 23.3292 24.6174C23.0497 24.9548 22.7503 24.9945 22.2513 24.7364C21.7523 24.4983 20.1554 23.9624 18.2791 22.2952C16.802 20.9853 15.8239 19.3777 15.5245 18.8815C15.245 18.3853 15.4846 18.1273 15.744 17.8693C15.9636 17.651 16.2431 17.2937 16.4826 17.0159C16.7221 16.738 16.8219 16.5197 16.9816 16.2021C17.1413 15.8647 17.0615 15.5869 16.9417 15.3487C16.8219 15.1105 15.8239 12.6892 15.4247 11.6968C15.0255 10.7441 14.6063 10.8632 14.3069 10.8434H13.3487C13.0094 10.8434 12.4904 10.9624 12.0313 11.4586C11.5922 11.9548 10.3147 13.1456 10.3147 15.567C10.3147 17.9884 12.0912 20.3304 12.3307 20.6479C12.5703 20.9853 15.8239 25.9471 20.7742 28.0708C21.9519 28.5868 22.8701 28.8845 23.5887 29.1028C24.7664 29.4799 25.8443 29.4204 26.7026 29.3013C27.6607 29.1624 29.6368 28.1105 30.0361 26.9593C30.4552 25.8082 30.4552 24.8357 30.3155 24.6174C30.1758 24.399 29.8764 24.2998 29.3773 24.0616Z" fill="white"/>
</svg>
